<?xml version="1.0" encoding="UTF-8" standalone="no"?>
<svg
   xmlns:dc="http://purl.org/dc/elements/1.1/"
   xmlns:cc="http://creativecommons.org/ns#"
   xmlns:rdf="http://www.w3.org/1999/02/22-rdf-syntax-ns#"
   xmlns:svg="http://www.w3.org/2000/svg"
   xmlns="http://www.w3.org/2000/svg"
   xmlns:sodipodi="http://sodipodi.sourceforge.net/DTD/sodipodi-0.dtd"
   xmlns:inkscape="http://www.inkscape.org/namespaces/inkscape"
   id="Layer_1"
   enable-background="new 0 0 490.667 490.667"
   viewBox="0 0 490.667 490.667"
   version="1.1"
   sodipodi:docname="binary-code.svg"
   inkscape:version="0.92.4 (5da689c313, 2019-01-14)">
  <metadata
     id="metadata65">
    <rdf:RDF>
      <cc:Work
         rdf:about="">
        <dc:format>image/svg+xml</dc:format>
        <dc:type
           rdf:resource="http://purl.org/dc/dcmitype/StillImage" />
      </cc:Work>
    </rdf:RDF>
  </metadata>
  <defs
     id="defs63" />
  <sodipodi:namedview
     pagecolor="#ffffff"
     bordercolor="#666666"
     borderopacity="1"
     objecttolerance="10"
     gridtolerance="10"
     guidetolerance="10"
     inkscape:pageopacity="0"
     inkscape:pageshadow="2"
     inkscape:window-width="2560"
     inkscape:window-height="1377"
     id="namedview61"
     showgrid="false"
     inkscape:zoom="0.96195588"
     inkscape:cx="223.85661"
     inkscape:cy="175.19936"
     inkscape:window-x="-8"
     inkscape:window-y="-8"
     inkscape:window-maximized="1"
     inkscape:current-layer="Layer_1" />
  <g
     id="g28"
     style="fill:#ffffff">
    <g
       id="g26"
       style="fill:#ffffff">
      <g
         id="g24"
         style="fill:#ffffff">
        <path
           d="m117.333 64h-42.666c-6.4 0-10.667 4.267-10.667 10.667v64c0 6.4 4.267 10.667 10.667 10.667h42.667c6.4 0 10.667-4.267 10.667-10.667v-64c-.001-6.4-4.268-10.667-10.668-10.667zm-10.666 64h-21.334v-42.667h21.333v42.667z"
           id="path2"
           style="fill:#ffffff" />
        <path
           d="m185.6 192c-4.267-2.133-8.533 0-10.667 2.133l-21.333 21.334c-4.267 4.267-4.267 10.667 0 14.934s10.667 4.267 14.934 0l2.133-2.133v38.4c0 6.4 4.267 10.667 10.667 10.667s10.667-4.267 10.667-10.667v-64c-.001-4.268-2.134-8.535-6.401-10.668z"
           id="path4"
           style="fill:#ffffff" />
        <path
           d="m437.333 0h-384c-29.866 0-53.333 23.467-53.333 53.333v298.667c0 29.867 23.467 53.333 53.333 53.333h160v21.333h-74.667c-29.867 0-53.333 23.467-53.333 53.333 0 6.4 4.267 10.667 10.667 10.667h298.667c6.4 0 10.667-4.267 10.667-10.667 0-2.133 0-2.133 0-4.267-2.134-27.732-25.601-49.065-53.334-49.065h-74.667v-21.333h160c29.867 0 53.333-23.467 53.333-53.333v-298.668c.001-29.866-23.466-53.333-53.333-53.333zm32 320h-448v-266.667c0-17.066 14.934-32 32-32h384c17.066 0 32 14.934 32 32z"
           id="path6"
           style="fill:#ffffff" />
        <path
           d="m117.333 192h-42.666c-6.4 0-10.667 4.267-10.667 10.667v64c0 6.4 4.267 10.667 10.667 10.667h42.667c6.4 0 10.667-4.267 10.667-10.667v-64c-.001-6.4-4.268-10.667-10.668-10.667zm-10.666 64h-21.334v-42.667h21.333v42.667z"
           id="path8"
           style="fill:#ffffff" />
        <path
           d="m334.934 64c-4.267-2.133-8.533 0-10.667 2.133l-21.333 21.333c-4.267 4.267-4.267 10.667 0 14.934s10.667 4.267 14.934 0l2.133-2.133v38.4c0 6.4 4.267 10.667 10.667 10.667s10.667-4.267 10.667-10.667v-64c-.002-4.267-2.135-8.534-6.401-10.667z"
           id="path10"
           style="fill:#ffffff" />
        <path
           d="m213.333 74.667c0-6.4-4.267-10.667-10.667-10.667h-42.666c-6.4 0-10.667 4.267-10.667 10.667v64c0 6.4 4.267 10.667 10.667 10.667h42.667c6.4 0 10.667-4.267 10.667-10.667v-64zm-21.333 53.333h-21.333v-42.667h21.333z"
           id="path12"
           style="fill:#ffffff" />
        <path
           d="m270.934 64c-4.267-2.133-8.533 0-10.667 2.133l-21.333 21.333c-4.267 4.267-4.267 10.667 0 14.934s10.667 4.266 14.933 0l2.133-2.133v38.4c0 6.4 4.267 10.667 10.667 10.667s10.667-4.267 10.667-10.667v-64c-.001-4.267-2.134-8.534-6.4-10.667z"
           id="path14"
           style="fill:#ffffff" />
        <path
           d="m416 192h-42.667c-6.4 0-10.667 4.267-10.667 10.667v64c0 6.4 4.267 10.667 10.667 10.667h42.667c6.4 0 10.667-4.267 10.667-10.667v-64c0-6.4-4.267-10.667-10.667-10.667zm-10.667 64h-21.333v-42.667h21.333z"
           id="path16"
           style="fill:#ffffff" />
        <path
           d="m334.934 192c-4.267-2.133-8.533 0-10.667 2.133l-21.333 21.333c-4.267 4.267-4.267 10.667 0 14.934s10.667 4.267 14.934 0l2.133-2.133v38.4c0 6.4 4.267 10.667 10.667 10.667s10.667-4.267 10.667-10.667v-64c-.002-4.267-2.135-8.534-6.401-10.667z"
           id="path18"
           style="fill:#ffffff" />
        <path
           d="m266.667 192h-42.667c-6.4 0-10.667 4.267-10.667 10.667v64c0 6.4 4.267 10.667 10.667 10.667h42.667c6.4 0 10.667-4.267 10.667-10.667v-64c-.001-6.4-4.268-10.667-10.667-10.667zm-10.667 64h-21.333v-42.667h21.333z"
           id="path20"
           style="fill:#ffffff" />
        <path
           d="m416 64h-42.667c-6.4 0-10.667 4.267-10.667 10.667v64c0 6.4 4.267 10.667 10.667 10.667h42.667c6.4 0 10.667-4.267 10.667-10.667v-64c0-6.4-4.267-10.667-10.667-10.667zm-10.667 64h-21.333v-42.667h21.333z"
           id="path22"
           style="fill:#ffffff" />
      </g>
    </g>
  </g>
  <g
     id="g30" />
  <g
     id="g32" />
  <g
     id="g34" />
  <g
     id="g36" />
  <g
     id="g38" />
  <g
     id="g40" />
  <g
     id="g42" />
  <g
     id="g44" />
  <g
     id="g46" />
  <g
     id="g48" />
  <g
     id="g50" />
  <g
     id="g52" />
  <g
     id="g54" />
  <g
     id="g56" />
  <g
     id="g58" />
</svg>
