<?xml version="1.0" encoding="UTF-8" standalone="no"?>
<!-- Created with Inkscape (http://www.inkscape.org/) -->

<svg
   xmlns:dc="http://purl.org/dc/elements/1.1/"
   xmlns:cc="http://creativecommons.org/ns#"
   xmlns:rdf="http://www.w3.org/1999/02/22-rdf-syntax-ns#"
   xmlns:svg="http://www.w3.org/2000/svg"
   xmlns="http://www.w3.org/2000/svg"
   xmlns:sodipodi="http://sodipodi.sourceforge.net/DTD/sodipodi-0.dtd"
   xmlns:inkscape="http://www.inkscape.org/namespaces/inkscape"
   width="700"
   height="400"
   id="svg2"
   version="1.1"
   inkscape:version="0.92.4 (5da689c313, 2019-01-14)"
   sodipodi:docname="devices.svg">
  <defs
     id="defs4" />
  <sodipodi:namedview
     id="base"
     pagecolor="#ffffff"
     bordercolor="#666666"
     borderopacity="1.0"
     inkscape:pageopacity="0.0"
     inkscape:pageshadow="2"
     inkscape:zoom="0.70710678"
     inkscape:cx="1264.8776"
     inkscape:cy="416.03261"
     inkscape:document-units="px"
     inkscape:current-layer="layer1"
     showgrid="false"
     showguides="true"
     inkscape:guide-bbox="true"
     inkscape:window-width="2560"
     inkscape:window-height="1377"
     inkscape:window-x="-8"
     inkscape:window-y="-8"
     inkscape:window-maximized="1" />
  <metadata
     id="metadata7">
    <rdf:RDF>
      <cc:Work
         rdf:about="">
        <dc:format>image/svg+xml</dc:format>
        <dc:type
           rdf:resource="http://purl.org/dc/dcmitype/StillImage" />
        <dc:title></dc:title>
      </cc:Work>
    </rdf:RDF>
  </metadata>
  <g
     inkscape:label="Livello 1"
     inkscape:groupmode="layer"
     id="layer1"
     transform="translate(0,-652.36218)">
    <g
       id="g4284"
       transform="translate(-18.384776,325.26912)">
      <g
         id="g4263">
        <rect
           style="fill:#ffffff;fill-opacity:1;stroke:none"
           id="rect4090-8"
           width="414.93106"
           height="305.25766"
           x="125.7448"
           y="334.25638"
           ry="38.808601"
           rx="38.808601" />
        <rect
           style="fill:#000000;fill-opacity:1;stroke:none"
           id="rect4090"
           width="402.1138"
           height="290.00369"
           x="131.90794"
           y="341.29288"
           ry="36.869308"
           rx="36.869308" />
        <rect
           style="fill:#ffffff;fill-opacity:1;stroke:#4d4d4d;stroke-width:0.91394508;stroke-miterlimit:4;stroke-dasharray:none;stroke-opacity:1"
           id="rect4088"
           width="365.57803"
           height="227.74194"
           x="149.53865"
           y="358.33664"
           ry="18.118832"
           rx="18.118832" />
        <path
           sodipodi:type="arc"
           style="fill:#ffffff;fill-opacity:1;stroke:none;stroke-width:0.49746993;stroke-miterlimit:4;stroke-dasharray:none;stroke-opacity:1"
           id="path4092"
           sodipodi:cx="350.97919"
           sodipodi:cy="564.90894"
           sodipodi:rx="5.1378474"
           sodipodi:ry="4.8167319"
           d="m 350.97919,560.0922 a 5.1378474,4.8167319 0 0 1 5.1375,4.76093 5.1378474,4.8167319 0 0 1 -5.01845,4.87124 5.1378474,4.8167319 0 0 1 -5.2538,-4.64803 5.1378474,4.8167319 0 0 1 4.8967,-4.97896"
           sodipodi:start="4.712389"
           sodipodi:end="4.6660407"
           sodipodi:open="true"
           transform="matrix(1.7788482,0,0,1.897438,-291.33236,-463.24452)" />
        <path
           style="fill:#000000;fill-opacity:1;stroke:none"
           d="m 302.03509,646.36415 c -4.13214,0 -7.48292,3.35078 -7.48292,7.48293 v 32.67353 h -27.8182 c -5.01215,0 -9.02521,4.07018 -9.02521,9.08233 v 3.82715 c 0,5.01215 4.01306,9.0252 9.02521,9.0252 h 132.06506 c 5.01214,0 9.0252,-4.01305 9.0252,-9.0252 v -3.82715 c 0,-5.01215 -4.01306,-9.08233 -9.0252,-9.08233 h -27.47548 v -32.67353 c 0,-4.13215 -3.29365,-7.48293 -7.4258,-7.48293 z"
           id="rect4112"
           inkscape:connector-curvature="0" />
      </g>
      <g
         id="g4276">
        <rect
           style="fill:#ffffff;fill-opacity:1;stroke:none"
           id="rect4172-5"
           width="201.23193"
           height="269.98166"
           x="495.60559"
           y="448.12415"
           ry="24.076967"
           rx="24.076967" />
        <rect
           style="fill:#000000;fill-opacity:1;stroke:none"
           id="rect4172"
           width="182.78902"
           height="250.42094"
           x="504.84521"
           y="458.45874"
           ry="22.332542"
           rx="22.332542" />
        <rect
           style="fill:#ffffff;fill-opacity:1;stroke:#4d4d4d;stroke-width:0.91276759;stroke-miterlimit:4;stroke-dasharray:none;stroke-opacity:1"
           id="rect4124"
           width="149.70583"
           height="198.32724"
           x="520.92401"
           y="477.23267"
           ry="0" />
        <path
           sodipodi:type="arc"
           style="fill:#ffffff;fill-opacity:1;stroke:none;stroke-width:0.5;stroke-linecap:butt;stroke-linejoin:round;stroke-miterlimit:4;stroke-dasharray:none;stroke-opacity:1"
           id="path4126"
           sodipodi:cx="494.9187"
           sodipodi:cy="610.7038"
           sodipodi:rx="4.0196443"
           sodipodi:ry="4.2708721"
           d="m 494.9187,606.43292 a 4.0196443,4.2708721 0 0 1 4.01938,4.22139 4.0196443,4.2708721 0 0 1 -3.92624,4.31921 4.0196443,4.2708721 0 0 1 -4.11035,-4.12129 4.0196443,4.2708721 0 0 1 3.83097,-4.41472"
           sodipodi:start="4.712389"
           sodipodi:end="4.6660407"
           transform="matrix(1.8226666,0,0,1.7154509,-306.33075,-355.046)"
           sodipodi:open="true" />
        <path
           sodipodi:type="arc"
           style="fill:#ffffff;fill-opacity:1;stroke:none;stroke-width:0.5;stroke-linecap:butt;stroke-linejoin:round;stroke-miterlimit:4;stroke-dasharray:none;stroke-opacity:1"
           id="path4126-2"
           sodipodi:cx="494.9187"
           sodipodi:cy="610.7038"
           sodipodi:rx="4.0196443"
           sodipodi:ry="4.2708721"
           d="m 494.9187,606.43292 a 4.0196443,4.2708721 0 0 1 4.01938,4.22139 4.0196443,4.2708721 0 0 1 -3.92624,4.31921 4.0196443,4.2708721 0 0 1 -4.11035,-4.12129 4.0196443,4.2708721 0 0 1 3.83097,-4.41472"
           sodipodi:start="4.712389"
           sodipodi:end="4.6660407"
           sodipodi:open="true"
           transform="matrix(1.8226666,0,0,1.7154509,-335.57709,-355.04511)" />
        <path
           sodipodi:type="arc"
           style="fill:#ffffff;fill-opacity:1;stroke:none;stroke-width:0.5;stroke-linecap:butt;stroke-linejoin:round;stroke-miterlimit:4;stroke-dasharray:none;stroke-opacity:1"
           id="path4126-4"
           sodipodi:cx="494.9187"
           sodipodi:cy="610.7038"
           sodipodi:rx="4.0196443"
           sodipodi:ry="4.2708721"
           d="m 494.9187,606.43292 a 4.0196443,4.2708721 0 0 1 4.01938,4.22139 4.0196443,4.2708721 0 0 1 -3.92624,4.31921 4.0196443,4.2708721 0 0 1 -4.11035,-4.12129 4.0196443,4.2708721 0 0 1 3.83097,-4.41472"
           sodipodi:start="4.712389"
           sodipodi:end="4.6660407"
           sodipodi:open="true"
           transform="matrix(1.8226666,0,0,1.7154509,-278.04605,-355.04511)" />
      </g>
      <g
         id="g4245">
        <rect
           style="fill:#ffffff;fill-opacity:1;stroke:none"
           id="rect3861-8"
           width="125.60437"
           height="188.1832"
           x="47.256958"
           y="528.77173"
           ry="29.708712"
           rx="29.708712" />
        <rect
           style="fill:#000000;fill-opacity:1;stroke:none"
           id="rect3861"
           width="109.67341"
           height="171.82167"
           x="55.00753"
           y="536.52173"
           ry="27.125698"
           rx="27.125698" />
        <rect
           style="fill:#ffffff;fill-opacity:1;stroke:#4d4d4d;stroke-width:0.91394508;stroke-miterlimit:4;stroke-dasharray:none;stroke-opacity:1"
           id="rect3774"
           width="87.738724"
           height="124.29652"
           x="65.988731"
           y="560.45764" />
        <rect
           style="fill:#ffffff;fill-opacity:1;stroke:#4d4d4d;stroke-width:0.36557803;stroke-linecap:round;stroke-linejoin:round;stroke-miterlimit:4;stroke-dasharray:none;stroke-opacity:1"
           id="rect3776"
           width="36.5578"
           height="3.6557803"
           x="91.512756"
           y="547.59607" />
        <path
           sodipodi:type="arc"
           style="fill:#ffffff;fill-opacity:1;stroke:none;stroke-width:0.46264702;stroke-linecap:round;stroke-linejoin:round;stroke-miterlimit:4;stroke-dasharray:none;stroke-opacity:1"
           id="path3859"
           sodipodi:cx="228.76521"
           sodipodi:cy="613.26593"
           sodipodi:rx="3.6263971"
           sodipodi:ry="3.7774971"
           d="m 228.76521,609.48843 a 3.6263971,3.7774971 0 0 1 3.62616,3.73373 3.6263971,3.7774971 0 0 1 -3.54213,3.82025 3.6263971,3.7774971 0 0 1 -3.70823,-3.6452 3.6263971,3.7774971 0 0 1 3.45619,-3.90472"
           sodipodi:start="4.712389"
           sodipodi:end="4.6660407"
           sodipodi:open="true"
           transform="matrix(2.0162052,0,0,1.9355568,-351.37951,-490.64331)" />
      </g>
    </g>
  </g>
</svg>
