<?xml version="1.0" encoding="UTF-8" standalone="no"?>
<svg
   xmlns:dc="http://purl.org/dc/elements/1.1/"
   xmlns:cc="http://creativecommons.org/ns#"
   xmlns:rdf="http://www.w3.org/1999/02/22-rdf-syntax-ns#"
   xmlns:svg="http://www.w3.org/2000/svg"
   xmlns="http://www.w3.org/2000/svg"
   xmlns:sodipodi="http://sodipodi.sourceforge.net/DTD/sodipodi-0.dtd"
   xmlns:inkscape="http://www.inkscape.org/namespaces/inkscape"
   width="512"
   height="512"
   viewBox="0 0 512 512"
   version="1.1"
   id="svg6"
   sodipodi:docname="javascript.svg"
   inkscape:version="0.92.4 (5da689c313, 2019-01-14)">
  <metadata
     id="metadata12">
    <rdf:RDF>
      <cc:Work
         rdf:about="">
        <dc:format>image/svg+xml</dc:format>
        <dc:type
           rdf:resource="http://purl.org/dc/dcmitype/StillImage" />
        <dc:title>ionicons-v5_logos</dc:title>
      </cc:Work>
    </rdf:RDF>
  </metadata>
  <defs
     id="defs10" />
  <sodipodi:namedview
     pagecolor="#ffffff"
     bordercolor="#666666"
     borderopacity="1"
     objecttolerance="10"
     gridtolerance="10"
     guidetolerance="10"
     inkscape:pageopacity="0"
     inkscape:pageshadow="2"
     inkscape:window-width="2560"
     inkscape:window-height="1376"
     id="namedview8"
     showgrid="false"
     inkscape:zoom="1.84375"
     inkscape:cx="210.00494"
     inkscape:cy="275.47811"
     inkscape:window-x="-8"
     inkscape:window-y="-8"
     inkscape:window-maximized="1"
     inkscape:current-layer="svg6" />
  <title
     id="title2">ionicons-v5_logos</title>
  <path
     d="M32,32V480H480V32ZM272,380c0,43.61-25.76,64.87-63.05,64.87-33.68,0-53.23-17.44-63.15-38.49h0l34.28-20.75c6.61,11.73,11.63,21.65,26.06,21.65,12,0,21.86-5.41,21.86-26.46V240h44Zm99.35,63.87c-39.09,0-64.35-17.64-76.68-42h0L329,382c9,14.74,20.75,24.56,41.5,24.56,17.44,0,27.57-7.72,27.57-19.75,0-14.43-10.43-19.54-29.68-28l-10.52-4.52c-30.38-12.92-50.52-29.16-50.52-63.45,0-31.57,24.05-54.63,61.64-54.63,26.77,0,46,8.32,59.85,32.68L396,290c-7.22-12.93-15-18-27.06-18-12.33,0-20.15,7.82-20.15,18,0,12.63,7.82,17.74,25.86,25.56l10.52,4.51c35.79,15.34,55.94,31,55.94,66.16C441.12,424.13,411.35,443.87,371.35,443.87Z"
     id="path4"
     style="fill:#ffffff" />
</svg>
