<?xml version="1.0" encoding="UTF-8" standalone="no"?>
<svg
   xmlns:dc="http://purl.org/dc/elements/1.1/"
   xmlns:cc="http://creativecommons.org/ns#"
   xmlns:rdf="http://www.w3.org/1999/02/22-rdf-syntax-ns#"
   xmlns:svg="http://www.w3.org/2000/svg"
   xmlns="http://www.w3.org/2000/svg"
   xmlns:sodipodi="http://sodipodi.sourceforge.net/DTD/sodipodi-0.dtd"
   xmlns:inkscape="http://www.inkscape.org/namespaces/inkscape"
   fill="none"
   height="512"
   viewBox="0 0 512 512"
   width="512"
   version="1.1"
   id="svg8"
   sodipodi:docname="typescript.svg"
   inkscape:version="0.92.4 (5da689c313, 2019-01-14)">
  <metadata
     id="metadata14">
    <rdf:RDF>
      <cc:Work
         rdf:about="">
        <dc:format>image/svg+xml</dc:format>
        <dc:type
           rdf:resource="http://purl.org/dc/dcmitype/StillImage" />
      </cc:Work>
    </rdf:RDF>
  </metadata>
  <defs
     id="defs12" />
  <sodipodi:namedview
     pagecolor="#ffffff"
     bordercolor="#666666"
     borderopacity="1"
     objecttolerance="10"
     gridtolerance="10"
     guidetolerance="10"
     inkscape:pageopacity="0"
     inkscape:pageshadow="2"
     inkscape:window-width="2560"
     inkscape:window-height="1377"
     id="namedview10"
     showgrid="false"
     inkscape:zoom="1.84375"
     inkscape:cx="135.44131"
     inkscape:cy="330.89395"
     inkscape:window-x="-8"
     inkscape:window-y="-8"
     inkscape:window-maximized="1"
     inkscape:current-layer="svg8" />
  <rect
     fill="#3178c6"
     height="512"
     rx="50"
     width="512"
     id="rect2"
     style="fill:none" />
  <path
     style="fill:#ffffff"
     d="M 50,0 C -23.801695,0 -0.22255004,-12.953844 0,50 L 1.6271186,510.27119 C 1.7250411,537.97101 21.2248,523.5746 48.915254,522.84746 L 462,512 c 80.82026,-2.12231 81.2492,6.4319 80.37288,-21.25424 L 527.18644,10.949153 C 526.31012,-16.736982 489.7,0 462,0 Z m 354.11133,238 c 11.685,0 22.0414,0.70333 31.0664,2.11133 9.025,1.408 17.3469,3.57219 24.96289,6.49219 v 46.77734 c -3.756,-2.608 -7.85115,-4.90277 -12.28515,-6.88477 -4.435,-1.981 -9.00031,-3.62373 -13.69531,-4.92773 -4.696,-1.303 -9.36482,-2.26853 -14.00782,-2.89453 -4.643,-0.625 -9.04965,-0.9375 -13.22265,-0.9375 -5.739,0 -10.95635,0.54758 -15.65235,1.64258 -4.695,1.095 -8.65757,2.63228 -11.89257,4.61328 -3.234,1.982 -5.73968,4.35514 -7.51368,7.11914 -1.774,2.764 -2.66015,5.86759 -2.66015,9.30859 0,3.755 0.99261,7.11685 2.97461,10.08985 1.982,2.972 4.79917,5.78726 8.45117,8.44726 3.652,2.659 8.08573,5.26627 13.30273,7.82227 5.217,2.555 11.1106,5.18839 17.6836,7.90039 8.973,3.754 17.03464,7.74279 24.18164,11.96679 7.147,4.224 13.27667,8.99741 18.38867,14.31641 5.113,5.319 9.02528,11.39361 11.73828,18.22461 2.713,6.831 4.06836,14.78342 4.06836,23.85742 0,12.515 -2.37409,23.02149 -7.12109,31.52149 -4.747,8.5 -11.19013,15.38439 -19.32813,20.65039 -8.138,5.267 -17.60725,9.04779 -28.40625,11.34179 -10.799,2.295 -22.19631,3.44141 -34.19531,3.44141 -12.312,0 -24.02277,-1.04291 -35.13477,-3.12891 -11.112,-2.086 -20.737,-5.21471 -28.875,-9.38671 v -50.06055 c 9.077,7.614 18.93613,13.32486 29.57813,17.13086 10.643,3.807 21.38923,5.70898 32.24023,5.70898 6.365,0 11.91997,-0.5727 16.66797,-1.7207 4.747,-1.147 8.71253,-2.73749 11.89453,-4.77149 3.182,-2.034 5.5561,-4.43131 7.1211,-7.19531 1.565,-2.764 2.34765,-5.76309 2.34765,-8.99609 0,-4.381 -1.25186,-8.29142 -3.75586,-11.73242 -2.505,-3.442 -5.92195,-6.62297 -10.25195,-9.54297 -4.329,-2.92 -9.46902,-5.73527 -15.41602,-8.44727 -5.947,-2.712 -12.364,-5.47501 -19.25,-8.29101 -17.529,-7.301 -30.59612,-16.21896 -39.20312,-26.75196 C 320.30411,332.28045 316,319.55658 316,304.64258 c 0,-11.681 2.34797,-21.71828 7.04297,-30.11328 4.695,-8.396 11.08587,-15.30452 19.17187,-20.72852 8.087,-5.423 17.4498,-9.41375 28.0918,-11.96875 C 380.94864,239.27703 392.21633,238 404.11133,238 Z M 118,243 h 179 v 41.08203 H 232.7793 V 467 H 181.90625 V 284.08203 H 118 Z"
     id="rect4"
     inkscape:connector-curvature="0"
     sodipodi:nodetypes="ssssssssssscccccsccssccccscsssccsscccscsssccsccsccssccccccccc" />
</svg>
